<svg xmlns="http://www.w3.org/2000/svg" width="64" height="64" viewBox="0 0 64 64" fill="none">
  <defs>
    <linearGradient id="shieldBody" x1="14" y1="6" x2="50" y2="58" gradientUnits="userSpaceOnUse">
      <stop stop-color="#9EE9CF"/>
      <stop offset="0.5" stop-color="#2DB98A"/>
      <stop offset="1" stop-color="#0A7F5C"/>
    </linearGradient>
    <linearGradient id="shieldInner" x1="22" y1="16" x2="42" y2="46" gradientUnits="userSpaceOnUse">
      <stop stop-color="#F4FFFB"/>
      <stop offset="1" stop-color="#C9F5E4"/>
    </linearGradient>
  </defs>
  <path d="M32 6L50 14V30.5C50 42.2 42.4 52.4 32 56C21.6 52.4 14 42.2 14 30.5V14L32 6Z" fill="url(#shieldBody)"/>
  <path d="M32 12.5L44.5 18V30.2C44.5 38.8 39 46.4 32 49.5C25 46.4 19.5 38.8 19.5 30.2V18L32 12.5Z" fill="url(#shieldInner)" opacity="0.92"/>
  <path d="M25.5 31.2L29.8 35.4L39 26" stroke="#0D8F68" stroke-width="3.2" stroke-linecap="round" stroke-linejoin="round"/>
  <path d="M32 6L50 14V30.5C50 42.2 42.4 52.4 32 56C21.6 52.4 14 42.2 14 30.5V14L32 6Z" stroke="rgba(255,255,255,0.4)" stroke-width="1.2" stroke-linejoin="round"/>
</svg>
